<svg width="90" height="21" viewBox="0 0 90 21" fill="none" xmlns="http://www.w3.org/2000/svg">
<path d="M9.21875 15.6953C8.72396 16.3268 7.85807 16.6426 6.62109 16.6426C5.09766 16.6426 4.33594 16.0469 4.33594 14.8555V9.83594C4.33594 8.65104 5.09766 8.05859 6.62109 8.05859C7.55208 8.05859 8.14453 8.26042 8.39844 8.66406V8.13672H10.8594V13.7031C10.8594 14.5951 11.1263 15.041 11.6602 15.041C13.2487 15.041 14.043 14.0417 14.043 12.043C14.043 7.69401 12.0768 5.51953 8.14453 5.51953C5.96354 5.51953 4.38151 6.16732 3.39844 7.46289C2.41536 8.75846 1.92383 10.2852 1.92383 12.043C1.92383 13.8203 2.41862 15.3763 3.4082 16.7109C4.4043 18.0391 5.98307 18.7031 8.14453 18.7031C9.8112 18.7031 11.2956 18.5436 12.5977 18.2246V19.9043C11.2695 20.2233 9.79818 20.3828 8.18359 20.3828C5.89193 20.3828 4.00391 19.5918 2.51953 18.0098C1.04167 16.4277 0.302734 14.4583 0.302734 12.1016C0.302734 9.7513 1.04167 7.79818 2.51953 6.24219C4.00391 4.67969 5.89193 3.89844 8.18359 3.89844C10.5273 3.89844 12.3763 4.57227 13.7305 5.91992C15.0846 7.26107 15.7617 9.32161 15.7617 12.1016C15.7617 13.3971 15.3776 14.4811 14.6094 15.3535C13.8411 16.2259 12.8385 16.6621 11.6016 16.6621C10.5143 16.6621 9.72005 16.3398 9.21875 15.6953ZM8.07617 14.3574V10.3535C8.07617 9.99544 7.91667 9.81641 7.59766 9.81641C7.27865 9.81641 7.11914 10.0052 7.11914 10.3828V14.3574C7.11914 14.709 7.28516 14.8848 7.61719 14.8848C7.92318 14.8848 8.07617 14.709 8.07617 14.3574ZM19.6523 17.6191L19.418 18H17.3184V3.99609H20.0918V7.00391C20.4238 6.72396 21 6.58398 21.8203 6.58398C22.3216 6.58398 22.7806 6.7207 23.1973 6.99414C23.6204 7.26107 23.832 7.64844 23.832 8.15625V16.3008C23.832 16.8737 23.5814 17.3262 23.0801 17.6582C22.5788 17.9902 21.9766 18.1562 21.2734 18.1562C20.7266 18.1562 20.1862 17.9772 19.6523 17.6191ZM21.0586 15.8809V8.85938C21.0586 8.51432 20.8991 8.3418 20.5801 8.3418C20.2546 8.3418 20.0918 8.50781 20.0918 8.83984V15.8809C20.0918 16.2259 20.2546 16.3984 20.5801 16.3984C20.8991 16.3984 21.0586 16.2259 21.0586 15.8809ZM32.0488 11.3594H29.2656V8.89844C29.2656 8.55339 29.1061 8.38086 28.7871 8.38086C28.4681 8.38086 28.3086 8.54688 28.3086 8.87891V18H25.5254V6.66211H28.3086V7.04297C28.6797 6.73698 29.2526 6.58398 30.0273 6.58398C30.5807 6.58398 31.056 6.73372 31.4531 7.0332C31.8503 7.32617 32.0488 7.71354 32.0488 8.19531V11.3594ZM33.5762 13.4395H36.3496V15.8418C36.3496 16.2259 36.5059 16.418 36.8184 16.418C37.1309 16.418 37.2871 16.0501 37.2871 15.3145C37.2871 14.3574 37.0951 13.7389 36.7109 13.459C35.2591 12.6973 34.3835 12.1667 34.084 11.8672C33.7845 11.5612 33.6348 11.1055 33.6348 10.5V8.97656C33.6348 7.38151 34.7155 6.58398 36.877 6.58398C38.9798 6.58398 40.0312 7.34896 40.0312 8.87891V11.1152H37.3164L37.375 9.75781C37.375 8.8138 37.2025 8.3418 36.8574 8.3418C36.5124 8.3418 36.3398 8.63802 36.3398 9.23047C36.3398 9.84245 36.4147 10.3047 36.5645 10.6172C36.7207 10.9297 37.5736 11.4668 39.123 12.2285C39.7676 12.6908 40.0898 13.3027 40.0898 14.0645V15.7637C40.0898 17.3587 38.9928 18.1562 36.7988 18.1562C34.6504 18.1562 33.5762 17.3913 33.5762 15.8613V13.4395ZM48.1895 13.1953H44.4492V15.8418C44.4492 16.2259 44.612 16.418 44.9375 16.418C45.2565 16.418 45.416 16.2259 45.416 15.8418V13.5566H48.1895V15.8613C48.1895 17.3913 47.099 18.1562 44.918 18.1562C42.7565 18.1562 41.6758 17.3587 41.6758 15.7637V8.97656C41.6758 7.38151 42.7565 6.58398 44.918 6.58398C47.099 6.58398 48.1895 7.34896 48.1895 8.87891V13.1953ZM45.416 11.4961V8.89844C45.416 8.52734 45.2565 8.3418 44.9375 8.3418C44.612 8.3418 44.4492 8.52734 44.4492 8.89844V11.4961H45.416ZM50.3125 20.4023V18.7617H52.5684C53.2259 18.7617 53.5547 18.4199 53.5547 17.7363C53.1901 18.0163 52.6172 18.1562 51.8359 18.1562C51.2891 18.1562 50.8138 18.013 50.4102 17.7266C50.013 17.4336 49.8145 17.0527 49.8145 16.584V8.43945C49.8145 7.20247 50.5534 6.58398 52.0312 6.58398C52.4219 6.58398 52.9362 6.75 53.5742 7.08203L53.9355 6.66211H56.3281V17.8438C56.3281 18.5794 56.1816 19.1882 55.8887 19.6699C55.6022 20.1582 54.7038 20.4023 53.1934 20.4023H50.3125ZM53.5547 15.9785V8.85938C53.5547 8.51432 53.3952 8.3418 53.0762 8.3418C52.7507 8.3418 52.5879 8.51432 52.5879 8.85938V15.959C52.5879 16.304 52.7507 16.4766 53.0762 16.4766C53.3952 16.4766 53.5547 16.3105 53.5547 15.9785ZM64.4766 18H61.7031V8.85938C61.7031 8.51432 61.5436 8.3418 61.2246 8.3418C60.8991 8.3418 60.7363 8.50781 60.7363 8.83984V18H57.9629V3.99609H60.7363V7.00391C61.0684 6.72396 61.6445 6.58398 62.4648 6.58398C63.0117 6.58398 63.4837 6.72721 63.8809 7.01367C64.278 7.30013 64.4766 7.68099 64.4766 8.15625V18ZM72.6348 13.1953H68.8945V15.8418C68.8945 16.2259 69.0573 16.418 69.3828 16.418C69.7018 16.418 69.8613 16.2259 69.8613 15.8418V13.5566H72.6348V15.8613C72.6348 17.3913 71.5443 18.1562 69.3633 18.1562C67.2018 18.1562 66.1211 17.3587 66.1211 15.7637V8.97656C66.1211 7.38151 67.2018 6.58398 69.3633 6.58398C71.5443 6.58398 72.6348 7.34896 72.6348 8.87891V13.1953ZM69.8613 11.4961V8.89844C69.8613 8.52734 69.7018 8.3418 69.3828 8.3418C69.0573 8.3418 68.8945 8.52734 68.8945 8.89844V11.4961H69.8613ZM74.2598 13.4395H77.0332V15.8418C77.0332 16.2259 77.1895 16.418 77.502 16.418C77.8145 16.418 77.9707 16.0501 77.9707 15.3145C77.9707 14.3574 77.7786 13.7389 77.3945 13.459C75.9427 12.6973 75.0671 12.1667 74.7676 11.8672C74.4681 11.5612 74.3184 11.1055 74.3184 10.5V8.97656C74.3184 7.38151 75.3991 6.58398 77.5605 6.58398C79.6634 6.58398 80.7148 7.34896 80.7148 8.87891V11.1152H78L78.0586 9.75781C78.0586 8.8138 77.8861 8.3418 77.541 8.3418C77.196 8.3418 77.0234 8.63802 77.0234 9.23047C77.0234 9.84245 77.0983 10.3047 77.248 10.6172C77.4043 10.9297 78.2572 11.4668 79.8066 12.2285C80.4512 12.6908 80.7734 13.3027 80.7734 14.0645V15.7637C80.7734 17.3587 79.6764 18.1562 77.4824 18.1562C75.334 18.1562 74.2598 17.3913 74.2598 15.8613V13.4395ZM88.873 13.1953H85.1328V15.8418C85.1328 16.2259 85.2956 16.418 85.6211 16.418C85.9401 16.418 86.0996 16.2259 86.0996 15.8418V13.5566H88.873V15.8613C88.873 17.3913 87.7826 18.1562 85.6016 18.1562C83.4401 18.1562 82.3594 17.3587 82.3594 15.7637V8.97656C82.3594 7.38151 83.4401 6.58398 85.6016 6.58398C87.7826 6.58398 88.873 7.34896 88.873 8.87891V13.1953ZM86.0996 11.4961V8.89844C86.0996 8.52734 85.9401 8.3418 85.6211 8.3418C85.2956 8.3418 85.1328 8.52734 85.1328 8.89844V11.4961H86.0996Z" fill="#800ADD"/>
</svg>
